<svg xmlns="http://www.w3.org/2000/svg" width="256" height="256" viewBox="0 0 100 100"><rect width="100" height="100" rx="50" fill="#ffffff"></rect><path fill="#000000" d="M25.69 37.53L25.69 37.53Q26.00 38.01 26.24 38.80Q26.48 39.59 26.48 40.52L26.48 40.52Q26.48 42.19 25.76 42.94Q25.03 43.69 23.80 43.69L23.80 43.69L18.83 43.69L18.83 64.15Q18.34 64.28 17.33 64.41Q16.32 64.54 15.26 64.54L15.26 64.54Q12.93 64.54 12.03 63.75Q11.13 62.96 11.13 60.89L11.13 60.89L11.13 43.69L4.48 43.69Q4.17 43.20 3.93 42.41Q3.69 41.62 3.69 40.69L3.69 40.69Q3.69 39.02 4.42 38.27Q5.14 37.53 6.37 37.53L6.37 37.53L25.69 37.53ZM50.77 64.15L50.77 64.15Q50.29 64.28 49.38 64.41Q48.48 64.54 47.43 64.54L47.43 64.54Q45.23 64.54 44.26 63.82Q43.29 63.09 43.29 61.02L43.29 61.02L43.29 51.25Q43.29 49.45 42.39 48.72Q41.49 48.00 40.17 48.00L40.17 48.00Q39.29 48.00 38.56 48.22Q37.83 48.44 37.22 48.79L37.22 48.79L37.22 64.15Q36.73 64.28 35.83 64.41Q34.93 64.54 33.87 64.54L33.87 64.54Q31.67 64.54 30.71 63.82Q29.74 63.09 29.74 61.02L29.74 61.02L29.74 35.50Q30.22 35.37 31.12 35.24Q32.03 35.11 33.08 35.11L33.08 35.11Q35.28 35.11 36.25 35.83Q37.22 36.56 37.22 38.63L37.22 38.63L37.22 42.98Q38.10 42.63 39.20 42.39Q40.30 42.15 41.57 42.15L41.57 42.15Q45.93 42.15 48.35 44.32Q50.77 46.50 50.77 50.81L50.77 50.81L50.77 64.15ZM77.52 53.50L77.52 53.50Q77.52 56.14 76.71 58.25Q75.89 60.36 74.38 61.84Q72.86 63.31 70.75 64.10Q68.63 64.89 65.99 64.89L65.99 64.89Q63.35 64.89 61.24 64.12Q59.13 63.35 57.61 61.88Q56.09 60.41 55.28 58.29Q54.47 56.18 54.47 53.50L54.47 53.50Q54.47 50.90 55.30 48.79Q56.14 46.68 57.66 45.20Q59.17 43.73 61.29 42.94Q63.40 42.15 65.99 42.15L65.99 42.15Q68.59 42.15 70.70 42.96Q72.81 43.77 74.33 45.25Q75.85 46.72 76.69 48.83Q77.52 50.95 77.52 53.50ZM65.99 48.00L65.99 48.00Q64.15 48.00 63.13 49.43Q62.12 50.86 62.12 53.50L62.12 53.50Q62.12 56.27 63.13 57.66Q64.15 59.04 65.99 59.04L65.99 59.04Q67.84 59.04 68.85 57.63Q69.87 56.23 69.87 53.50L69.87 53.50Q69.87 50.86 68.85 49.43Q67.84 48.00 65.99 48.00ZM88.65 49.10L88.65 64.15Q88.17 64.28 87.27 64.41Q86.37 64.54 85.31 64.54L85.31 64.54Q83.11 64.54 82.14 63.82Q81.17 63.09 81.17 61.02L81.17 61.02L81.17 47.95Q81.17 46.68 81.83 45.73Q82.49 44.79 83.64 44.08L83.64 44.08Q85.18 43.16 87.22 42.67Q89.27 42.19 91.51 42.19L91.51 42.19Q96.31 42.19 96.31 45.58L96.31 45.58Q96.31 46.37 96.09 47.05Q95.87 47.73 95.56 48.22L95.56 48.22Q94.73 48.04 93.14 48.04L93.14 48.04Q92.00 48.04 90.79 48.31Q89.58 48.57 88.65 49.10L88.65 49.10Z"></path></svg>