<svg xmlns="http://www.w3.org/2000/svg" width="256" height="256" viewBox="0 0 100 100"><rect width="100" height="100" rx="50" fill="#ffffff"></rect><path d="M21.79 42.05L16.20 42.05L16.20 61.17Q15.94 61.28 15.44 61.38Q14.94 61.47 14.39 61.47L14.39 61.47Q13.24 61.47 12.76 61.04Q12.28 60.62 12.28 59.62L12.28 59.62L12.28 42.05L5.73 42.05Q5.54 41.79 5.41 41.38Q5.29 40.97 5.29 40.45L5.29 40.45Q5.29 39.64 5.67 39.21Q6.06 38.79 6.73 38.79L6.73 38.79L22.82 38.79Q22.97 39.01 23.10 39.42Q23.23 39.83 23.23 40.31L23.23 40.31Q23.23 42.05 21.79 42.05L21.79 42.05ZM41.47 38.79L41.47 38.79Q41.73 38.72 42.25 38.62Q42.77 38.53 43.32 38.53L43.32 38.53Q44.39 38.53 44.93 38.94Q45.47 39.34 45.47 40.38L45.47 40.38L45.47 61.17Q45.17 61.28 44.67 61.38Q44.17 61.47 43.62 61.47L43.62 61.47Q42.47 61.47 41.97 61.04Q41.47 60.62 41.47 59.62L41.47 59.62L41.47 51.52L31.15 51.52L31.15 61.17Q30.85 61.28 30.37 61.38Q29.89 61.47 29.30 61.47L29.30 61.47Q28.15 61.47 27.65 61.04Q27.15 60.62 27.15 59.62L27.15 59.62L27.15 38.79Q27.45 38.72 27.95 38.62Q28.45 38.53 29.00 38.53L29.00 38.53Q30.08 38.53 30.61 38.94Q31.15 39.34 31.15 40.38L31.15 40.38L31.15 48.30L41.47 48.30L41.47 38.79ZM72.29 50L72.29 50Q72.29 52.89 71.46 55.09Q70.63 57.29 69.15 58.77Q67.67 60.25 65.67 61.01Q63.67 61.77 61.30 61.77L61.30 61.77Q58.94 61.77 56.92 61.01Q54.90 60.25 53.44 58.77Q51.98 57.29 51.15 55.09Q50.31 52.89 50.31 50L50.31 50Q50.31 47.11 51.17 44.93Q52.02 42.75 53.50 41.25Q54.98 39.75 56.99 38.99Q59.01 38.23 61.30 38.23L61.30 38.23Q63.63 38.23 65.63 38.99Q67.63 39.75 69.11 41.25Q70.59 42.75 71.44 44.93Q72.29 47.11 72.29 50ZM68.26 50L68.26 50Q68.26 45.86 66.37 43.69Q64.49 41.53 61.30 41.53L61.30 41.53Q58.20 41.53 56.29 43.71Q54.38 45.89 54.38 50L54.38 50Q54.38 54.14 56.27 56.33Q58.16 58.51 61.30 58.51L61.30 58.51Q64.49 58.51 66.37 56.33Q68.26 54.14 68.26 50ZM81.17 53.07L81.17 61.17Q80.88 61.28 80.40 61.38Q79.91 61.47 79.32 61.47L79.32 61.47Q78.18 61.47 77.68 61.04Q77.18 60.62 77.18 59.62L77.18 59.62L77.18 40.53Q77.18 39.90 77.53 39.55Q77.88 39.20 78.51 39.01L78.51 39.01Q79.66 38.60 81.25 38.46Q82.84 38.31 84.43 38.31L84.43 38.31Q89.24 38.31 91.59 40.25Q93.94 42.19 93.94 45.71L93.94 45.71Q93.94 48.15 92.66 49.87Q91.38 51.59 89.02 52.44L89.02 52.44Q89.90 53.55 90.76 54.64Q91.61 55.73 92.36 56.72Q93.12 57.70 93.73 58.49Q94.34 59.29 94.71 59.80L94.71 59.80Q94.53 60.66 93.90 61.10Q93.27 61.54 92.53 61.54L92.53 61.54Q91.64 61.54 91.13 61.12Q90.61 60.69 90.09 59.95L90.09 59.95L85.32 53.07L81.17 53.07ZM81.14 49.89L84.72 49.89Q87.13 49.89 88.54 48.85Q89.94 47.82 89.94 45.71L89.94 45.71Q89.94 43.64 88.52 42.60Q87.09 41.56 84.32 41.56L84.32 41.56Q83.47 41.56 82.63 41.64Q81.80 41.71 81.14 41.82L81.14 41.82L81.14 49.89Z" fill="#060100"></path></svg>